PathFileType	4	(X/Y/Z)	OpenSim_Sub03_CSBaseline_Gyro.trc
DataRate	CameraRate	NumFrames	NumMarkers	Units	OrigDataRate	OrigDataStartFrame	OrigNumFrames
100	100	16	8	m	100	8128	9288
Frame#	Time	torso_imu_offset_imu	pelvis_imu_offset_imu	tibia_r_imu_offset_imu	femur_r_imu_offset_imu	tibia_l_imu_offset_imu	femur_l_imu_offset_imu	toes_r_imu_offset_imu	toes_l_imu_offset_imu
				X1	Y1	Z1	X2	Y2	Z2	X3	Y3	Z3	X4	Y4	Z4	X5	Y5	Z5	X6	Y6	Z6	X7	Y7	Z7	X8		Y8	Z8	

8128	81.27000000	0.32169949	-0.13639999	0.25405392	-0.04134702	0.01437633	-0.38137688	-0.49601842	-0.26961476	-0.48753104	-0.71779782	-0.11564593	-0.89526324	0.38140555	-0.24663135	-0.19731740	-0.63814390	-0.49468357	-1.69274937	0.07933007	-0.07958185	-0.14267245	-0.62276685	1.56698346	-1.32144979
8129	81.28000000	0.29195043	-0.11737786	0.19996421	-0.08098952	0.01965472	-0.43616856	-0.54978045	-0.24570534	-0.52419969	-0.82235902	-0.09912540	-0.75399688	-0.56027511	-0.18631344	-0.58447622	-0.71574392	-0.49112304	-1.61728345	0.06992021	-0.11216298	-0.17103246	-0.35854840	1.76132718	-1.69186279
8130	81.29000000	0.24418484	-0.10329017	0.15284031	-0.12576389	0.02819688	-0.47376765	-0.53394931	-0.22748255	-0.55727538	-0.91424777	-0.06185033	-0.61267123	-1.58872879	-0.06026893	-0.94785810	-0.79287345	-0.46282135	-1.55959816	0.09718745	-0.15629680	-0.22211347	-0.22117114	1.98398690	-1.89367034
8131	81.30000000	0.19724472	-0.10485001	0.10882976	-0.17426890	0.03859599	-0.47743591	-0.53982491	-0.25334463	-0.60835088	-0.99445084	-0.01650120	-0.47389350	-2.21092137	-0.09407274	-1.18833600	-0.85591745	-0.41438470	-1.52029019	0.11638202	-0.18159330	-0.26224573	-0.22749288	2.27961858	-1.98566537
8132	81.31000000	0.14409290	-0.11957358	0.07438194	-0.20091600	0.05193875	-0.44959142	-0.54668818	-0.26009883	-0.63979266	-1.05989638	0.02480068	-0.37362175	-2.18998577	-0.25994144	-1.44420097	-0.90326162	-0.37513880	-1.49415026	0.09466670	-0.19192639	-0.29109092	-0.14547917	2.57341273	-2.00910149
8133	81.32000000	0.10341406	-0.13544386	0.04659712	-0.22306931	0.04712828	-0.44172529	-0.55590760	-0.26280335	-0.67465979	-1.06931596	0.05008809	-0.35527068	-1.79941652	-0.34433872	-1.77372538	-0.92267890	-0.33057906	-1.45905016	0.11371303	-0.20597139	-0.31876585	0.13042789	2.91828858	-1.99842111
8134	81.33000000	0.06645320	-0.15424688	0.03222218	-0.22658415	0.03218267	-0.41341715	-0.53359010	-0.26814945	-0.70157058	-1.02819069	0.05051817	-0.35515998	-1.25157323	-0.32993470	-2.12616053	-0.93420923	-0.26570313	-1.41185851	0.14005247	-0.21842399	-0.32134320	0.51227472	3.27501135	-1.92979203
8135	81.34000000	0.03029635	-0.17410285	0.02191972	-0.22216320	0.02610389	-0.37743458	-0.49350750	-0.27375582	-0.72025138	-0.94419136	0.04498115	-0.35409491	-0.64602825	-0.27093337	-2.45226500	-0.93245233	-0.18667562	-1.37813390	0.11301253	-0.21422297	-0.31787397	0.83303277	3.54446523	-1.78666677
8136	81.35000000	0.00808063	-0.19836826	0.01327498	-0.20328181	0.02799425	-0.36532684	-0.44810114	-0.27196617	-0.73817815	-0.80971041	0.04568712	-0.37265609	-0.12453312	-0.26639309	-2.75383441	-0.92889425	-0.11528309	-1.33096086	0.12254990	-0.22138181	-0.32693975	1.02850215	3.72911324	-1.56056461
8137	81.36000000	-0.01181074	-0.22846969	0.00689569	-0.17695924	0.02346320	-0.36438060	-0.40015378	-0.24414471	-0.73931835	-0.66657244	0.04345659	-0.44884247	0.28289469	-0.33516206	-3.00136699	-0.93290732	-0.04758702	-1.24923035	0.12878170	-0.23747816	-0.32886709	1.14152629	3.88533677	-1.31159190
8138	81.37000000	-0.01902936	-0.23580695	0.00352366	-0.13751726	0.03069579	-0.33928995	-0.35131251	-0.23378252	-0.72066475	-0.50258514	0.03078316	-0.51226439	0.57065525	-0.39049278	-3.22376075	-0.89592428	0.00826316	-1.17190383	0.12592345	-0.25454192	-0.32845731	1.22266855	4.03761164	-1.09711866
8139	81.38000000	-0.02860207	-0.24733688	0.00768011	-0.08425432	0.04947469	-0.30927553	-0.33069605	-0.20282980	-0.70563250	-0.35677520	0.01753356	-0.57475709	0.69448706	-0.39659239	-3.43550479	-0.82313859	0.04415684	-1.08400129	0.12494666	-0.26212657	-0.32740055	1.28726821	4.24008404	-0.95171432
8140	81.39000000	-0.02622126	-0.25107946	0.00259767	-0.02394785	0.06205861	-0.27790277	-0.33619179	-0.18935455	-0.68162614	-0.24828591	0.01382066	-0.62014009	0.70492018	-0.38107995	-3.59958169	-0.76311716	0.08651442	-0.97727711	0.10559776	-0.27055160	-0.30752290	1.32246568	4.45397621	-0.86700272
8141	81.40000000	-0.01082384	-0.24591497	-0.00112306	0.03378421	0.06239355	-0.24207577	-0.32376841	-0.16620494	-0.67054829	-0.18280935	0.01565101	-0.68302335	0.71227885	-0.32044893	-3.73081163	-0.69201245	0.12523418	-0.87594865	0.10331038	-0.27377803	-0.28696321	1.30227638	4.58621954	-0.82955178
8142	81.41000000	0.01335574	-0.23557588	-0.00765270	0.07349266	0.07664256	-0.20887883	-0.27603723	-0.15218204	-0.65870867	-0.11679086	0.01163571	-0.72858142	0.73374008	-0.34907560	-3.88292234	-0.56954320	0.13870931	-0.78068771	0.08625438	-0.26528771	-0.26566930	1.19706586	4.62760344	-0.83178969
8143	81.42000000	0.02228339	-0.23064855	-0.01308233	0.09060841	0.11201869	-0.18526840	-0.20450289	-0.13069669	-0.65015199	-0.04953972	0.01604959	-0.73440173	0.66254302	-0.38406775	-4.08543005	-0.40343190	0.11984161	-0.68515842	0.07284275	-0.26327367	-0.26311307	1.06714280	4.60479286	-0.89051273
